solid Base 1.1
facet normal -0.49635298860292393 7.817704026070482e-17 -0.8681207926924374
  outer loop
    vertex 162.8442045343832 67.21255592475231 -24.8176494301462
    vertex 110.75695697283699 117.21255592475231 4.963529886029242
    vertex 162.84420453438324 117.21255592475231 -24.81764943014621
  endloop
endfacet
facet normal -0.49635298860292393 7.817704026070482e-17 -0.8681207926924374
  outer loop
    vertex 110.75695697283699 117.21255592475231 4.963529886029242
    vertex 162.8442045343832 67.21255592475231 -24.8176494301462
    vertex 153.6370136336458 72.2125559247523 -19.553385794615775
  endloop
endfacet
facet normal -0.49635298860292393 7.817704026070482e-17 -0.8681207926924374
  outer loop
    vertex 110.75695697283699 117.21255592475231 4.963529886029242
    vertex 153.6370136336458 72.2125559247523 -19.553385794615775
    vertex 119.43816489976132 79.21255592475234 -8.459899447643692e-15
  endloop
endfacet
facet normal -0.49635298860292393 7.817704026070482e-17 -0.8681207926924374
  outer loop
    vertex 153.6370136336458 72.2125559247523 -19.553385794615775
    vertex 162.8442045343832 67.21255592475231 -24.8176494301462
    vertex 153.6370136336458 67.2125559247523 -19.553385794615775
  endloop
endfacet
facet normal -0.49635298860292393 7.817704026070482e-17 -0.8681207926924374
  outer loop
    vertex 119.43816489976132 79.21255592475234 -8.459899447643692e-15
    vertex 147.56016808479873 72.2125559247523 -16.07891487439529
    vertex 119.43816489976136 67.21255592475231 0.0
  endloop
endfacet
facet normal -0.49635298860292393 7.817704026070482e-17 -0.8681207926924374
  outer loop
    vertex 147.56016808479873 72.2125559247523 -16.07891487439529
    vertex 119.43816489976132 79.21255592475234 -8.459899447643692e-15
    vertex 153.6370136336458 72.2125559247523 -19.553385794615775
  endloop
endfacet
facet normal -0.49635298860292393 7.817704026070482e-17 -0.8681207926924374
  outer loop
    vertex 119.43816489976136 67.21255592475231 0.0
    vertex 147.56016808479873 72.2125559247523 -16.07891487439529
    vertex 147.56016808479873 67.2125559247523 -16.07891487439529
  endloop
endfacet
facet normal -0.49635298860292393 7.817704026070482e-17 -0.8681207926924374
  outer loop
    vertex 110.75695697283699 79.21255592475232 4.963529886029242
    vertex 110.75695697283699 117.21255592475231 4.963529886029242
    vertex 119.43816489976132 79.21255592475234 -8.459899447643692e-15
  endloop
endfacet
facet normal 0.0 1.0 0.0
  outer loop
    vertex 139.29228444387832 117.21255592475231 34.72483170769752
    vertex 143.31794172866594 117.21255592475231 24.687104228295812
    vertex 129.36522467181985 117.21255592475231 17.362415853848752
  endloop
endfacet
facet normal 0.0 1.0 0.0
  outer loop
    vertex 143.31794172866594 117.21255592475231 24.687104228295812
    vertex 139.29228444387832 117.21255592475231 34.72483170769752
    vertex 182.69832407850026 117.21255592475231 9.907182277551293
  endloop
endfacet
facet normal 0.0 1.0 0.0
  outer loop
    vertex 143.31794172866594 117.21255592475231 24.687104228295812
    vertex 182.69832407850026 117.21255592475231 9.907182277551293
    vertex 149.40934749228677 117.21255592475231 21.238223855924947
  endloop
endfacet
facet normal 0.0 1.0 0.0
  outer loop
    vertex 149.40934749228677 117.21255592475231 21.238223855924947
    vertex 182.69832407850026 117.21255592475231 9.907182277551293
    vertex 164.15037200260338 117.21255592475231 12.258765448529285
  endloop
endfacet
facet normal 0.0 1.0 0.0
  outer loop
    vertex 149.40934749228677 117.21255592475231 21.238223855924947
    vertex 164.15037200260338 117.21255592475231 12.258765448529285
    vertex 144.48237553175701 117.21255592475231 12.536215622180757
  endloop
endfacet
facet normal 0.0 1.0 0.0
  outer loop
    vertex 144.48237553175701 117.21255592475231 12.536215622180757
    vertex 164.15037200260338 117.21255592475231 12.258765448529285
    vertex 145.71977963697523 117.21255592475231 7.203837052255446
  endloop
endfacet
facet normal 0.0 1.0 0.0
  outer loop
    vertex 144.48237553175701 117.21255592475231 12.536215622180757
    vertex 145.71977963697523 117.21255592475231 7.203837052255446
    vertex 140.1998035078093 117.21255592475231 -2.45059469879096
  endloop
endfacet
facet normal 0.0 1.0 0.0
  outer loop
    vertex 145.71977963697523 117.21255592475231 7.203837052255446
    vertex 164.15037200260338 117.21255592475231 12.258765448529285
    vertex 151.6865466011881 117.21255592475231 3.7923041873428365
  endloop
endfacet
facet normal 0.0 1.0 0.0
  outer loop
    vertex 151.6865466011881 117.21255592475231 3.7923041873428365
    vertex 164.15037200260338 117.21255592475231 12.258765448529285
    vertex 146.1665704720222 117.21255592475231 -5.862127563703623
  endloop
endfacet
facet normal 0.0 1.0 0.0
  outer loop
    vertex 164.15037200260338 117.21255592475231 12.258765448529285
    vertex 182.69832407850026 117.21255592475231 9.907182277551293
    vertex 170.22721755145045 117.21255592475231 8.784294528308813
  endloop
endfacet
facet normal 0.0 1.0 0.0
  outer loop
    vertex 170.22721755145045 117.21255592475231 8.784294528308813
    vertex 182.69832407850026 117.21255592475231 9.907182277551293
    vertex 165.26368766542123 117.21255592475231 0.10308660138443494
  endloop
endfacet
facet normal 0.0 1.0 0.0
  outer loop
    vertex 165.26368766542123 117.21255592475231 0.10308660138443494
    vertex 182.69832407850026 117.21255592475231 9.907182277551293
    vertex 162.84420453438324 117.21255592475231 -24.81764943014621
  endloop
endfacet
facet normal 0.0 1.0 0.0
  outer loop
    vertex 129.36522467181985 117.21255592475231 17.362415853848752
    vertex 110.75695697283699 117.21255592475231 4.963529886029242
    vertex 120.68401674489546 117.21255592475231 22.325945739878012
  endloop
endfacet
facet normal 0.0 1.0 0.0
  outer loop
    vertex 110.75695697283699 117.21255592475231 4.963529886029242
    vertex 129.36522467181985 117.21255592475231 17.362415853848752
    vertex 140.1998035078093 117.21255592475231 -2.45059469879096
  endloop
endfacet
facet normal 0.0 1.0 0.0
  outer loop
    vertex 110.75695697283699 117.21255592475231 4.963529886029242
    vertex 140.1998035078093 117.21255592475231 -2.45059469879096
    vertex 162.84420453438324 117.21255592475231 -24.81764943014621
  endloop
endfacet
facet normal 0.0 1.0 0.0
  outer loop
    vertex 140.1998035078093 117.21255592475231 -2.45059469879096
    vertex 129.36522467181985 117.21255592475231 17.362415853848752
    vertex 138.39096976813605 117.21255592475231 15.985095994551678
  endloop
endfacet
facet normal 0.0 1.0 0.0
  outer loop
    vertex 138.39096976813605 117.21255592475231 15.985095994551678
    vertex 129.36522467181985 117.21255592475231 17.362415853848752
    vertex 143.31794172866594 117.21255592475231 24.687104228295812
  endloop
endfacet
facet normal 0.0 1.0 0.0
  outer loop
    vertex 140.1998035078093 117.21255592475231 -2.45059469879096
    vertex 138.39096976813605 117.21255592475231 15.985095994551678
    vertex 144.48237553175701 117.21255592475231 12.536215622180757
  endloop
endfacet
facet normal 0.0 1.0 0.0
  outer loop
    vertex 162.84420453438324 117.21255592475231 -24.81764943014621
    vertex 140.1998035078093 117.21255592475231 -2.45059469879096
    vertex 146.1665704720222 117.21255592475231 -5.862127563703623
  endloop
endfacet
facet normal 0.0 1.0 0.0
  outer loop
    vertex 162.84420453438324 117.21255592475231 -24.81764943014621
    vertex 146.1665704720222 117.21255592475231 -5.862127563703623
    vertex 159.18684211657416 117.21255592475231 3.5775575216049105
  endloop
endfacet
facet normal 0.0 1.0 0.0
  outer loop
    vertex 159.18684211657416 117.21255592475231 3.5775575216049105
    vertex 146.1665704720222 117.21255592475231 -5.862127563703623
    vertex 164.15037200260338 117.21255592475231 12.258765448529285
  endloop
endfacet
facet normal 0.0 1.0 0.0
  outer loop
    vertex 162.84420453438324 117.21255592475231 -24.81764943014621
    vertex 159.18684211657416 117.21255592475231 3.5775575216049105
    vertex 165.26368766542123 117.21255592475231 0.10308660138443494
  endloop
endfacet
facet normal 0.8681207926924374 -5.688375888138751e-17 -0.49635298860292404
  outer loop
    vertex 162.84420453438324 117.21255592475231 -24.81764943014621
    vertex 164.77653511011204 81.84113610117618 -21.43800552819826
    vertex 162.8442045343832 67.21255592475231 -24.8176494301462
  endloop
endfacet
facet normal 0.8681207926924374 -5.688375888138751e-17 -0.49635298860292404
  outer loop
    vertex 164.77653511011204 81.84113610117618 -21.43800552819826
    vertex 162.84420453438324 117.21255592475231 -24.81764943014621
    vertex 182.69832407850026 117.21255592475231 9.907182277551293
  endloop
endfacet
facet normal 0.8681207926924374 -5.688375888138751e-17 -0.49635298860292404
  outer loop
    vertex 164.77653511011204 81.84113610117618 -21.43800552819826
    vertex 182.69832407850026 117.21255592475231 9.907182277551293
    vertex 178.71154003830554 81.84113610117618 2.9343016850338755
  endloop
endfacet
facet normal 0.8681207926924374 -5.688375888138751e-17 -0.49635298860292404
  outer loop
    vertex 178.71154003830554 81.84113610117618 2.9343016850338755
    vertex 182.69832407850026 117.21255592475231 9.907182277551293
    vertex 179.1504979704625 81.83936002751703 3.7020385915756067
  endloop
endfacet
facet normal 0.8681207926924374 -5.688375888138751e-17 -0.49635298860292404
  outer loop
    vertex 179.1504979704625 81.83936002751703 3.7020385915756067
    vertex 182.69832407850026 117.21255592475231 9.907182277551293
    vertex 179.57147209590275 81.58881075066763 4.438321841342648
  endloop
endfacet
facet normal 0.8681207926924374 -5.688375888138751e-17 -0.49635298860292404
  outer loop
    vertex 179.57147209590275 81.58881075066763 4.438321841342648
    vertex 182.69832407850026 117.21255592475231 9.907182277551293
    vertex 179.94044415471143 81.10973476537963 5.0836535377951115
  endloop
endfacet
facet normal 0.8681207926924374 -5.688375888138751e-17 -0.49635298860292404
  outer loop
    vertex 179.94044415471143 81.10973476537963 5.0836535377951115
    vertex 182.69832407850026 117.21255592475231 9.907182277551293
    vertex 180.22759809255345 80.440845451886 5.585885437004272
  endloop
endfacet
facet normal 0.8681207926924374 -5.688375888138751e-17 -0.49635298860292404
  outer loop
    vertex 180.22759809255345 80.440845451886 5.585885437004272
    vertex 182.69832407850026 117.21255592475231 9.907182277551293
    vertex 180.4097294493381 79.63619470826201 5.904432965590773
  endloop
endfacet
facet normal 0.8681207926924374 -5.688375888138751e-17 -0.49635298860292404
  outer loop
    vertex 180.4097294493381 79.63619470826201 5.904432965590773
    vertex 182.69832407850026 117.21255592475231 9.907182277551293
    vertex 180.47212047530505 78.76080510117617 6.0135547965518885
  endloop
endfacet
facet normal 0.8681207926924374 -5.688375888138751e-17 -0.49635298860292404
  outer loop
    vertex 162.8442045343832 67.21255592475231 -24.8176494301462
    vertex 164.77653511011204 75.68047410117617 -21.43800552819826
    vertex 182.69832407850026 67.21255592475231 9.907182277551293
  endloop
endfacet
facet normal 0.8681207926924374 -5.688375888138751e-17 -0.49635298860292404
  outer loop
    vertex 164.77653511011204 75.68047410117617 -21.43800552819826
    vertex 162.8442045343832 67.21255592475231 -24.8176494301462
    vertex 164.77653511011204 81.84113610117618 -21.43800552819826
  endloop
endfacet
facet normal 0.8681207926924374 -5.688375888138751e-17 -0.49635298860292404
  outer loop
    vertex 182.69832407850026 67.21255592475231 9.907182277551293
    vertex 164.77653511011204 75.68047410117617 -21.43800552819826
    vertex 178.71154003830554 75.68047410117617 2.9343016850338755
  endloop
endfacet
facet normal 0.8681207926924374 -5.688375888138751e-17 -0.49635298860292404
  outer loop
    vertex 182.69832407850026 67.21255592475231 9.907182277551293
    vertex 178.71154003830554 75.68047410117617 2.9343016850338755
    vertex 179.1504979704625 75.6822501748353 3.7020385915756067
  endloop
endfacet
facet normal 0.8681207926924374 -5.688375888138751e-17 -0.49635298860292404
  outer loop
    vertex 182.69832407850026 67.21255592475231 9.907182277551293
    vertex 179.1504979704625 75.6822501748353 3.7020385915756067
    vertex 179.57147209590275 75.93279945168472 4.438321841342648
  endloop
endfacet
facet normal 0.8681207926924374 -5.688375888138751e-17 -0.49635298860292404
  outer loop
    vertex 182.69832407850026 67.21255592475231 9.907182277551293
    vertex 179.57147209590275 75.93279945168472 4.438321841342648
    vertex 179.94044415471146 76.41187543697272 5.0836535377951115
  endloop
endfacet
facet normal 0.8681207926924374 -5.688375888138751e-17 -0.49635298860292404
  outer loop
    vertex 182.69832407850026 67.21255592475231 9.907182277551293
    vertex 179.94044415471146 76.41187543697272 5.0836535377951115
    vertex 180.22759809255345 77.08076475046633 5.585885437004272
  endloop
endfacet
facet normal 0.8681207926924374 -5.688375888138751e-17 -0.49635298860292404
  outer loop
    vertex 182.69832407850026 67.21255592475231 9.907182277551293
    vertex 180.22759809255345 77.08076475046633 5.585885437004272
    vertex 180.4097294493381 77.88541549409032 5.904432965590773
  endloop
endfacet
facet normal 0.8681207926924374 -5.688375888138751e-17 -0.49635298860292404
  outer loop
    vertex 182.69832407850026 67.21255592475231 9.907182277551293
    vertex 180.4097294493381 77.88541549409032 5.904432965590773
    vertex 180.47212047530505 78.76080510117617 6.0135547965518885
  endloop
endfacet
facet normal 0.8681207926924374 -5.688375888138751e-17 -0.49635298860292404
  outer loop
    vertex 182.69832407850026 67.21255592475231 9.907182277551293
    vertex 180.47212047530505 78.76080510117617 6.0135547965518885
    vertex 182.69832407850026 117.21255592475231 9.907182277551293
  endloop
endfacet
facet normal 2.224174280525276e-17 -1.0 3.250227382522196e-16
  outer loop
    vertex 147.56016808479873 67.2125559247523 -16.07891487439529
    vertex 136.7311580290875 67.21255592475232 7.035849858038778
    vertex 119.43816489976136 67.21255592475231 0.0
  endloop
endfacet
facet normal 2.224174280525276e-17 -1.0 3.250227382522196e-16
  outer loop
    vertex 136.7311580290875 67.21255592475232 7.035849858038778
    vertex 147.56016808479873 67.2125559247523 -16.07891487439529
    vertex 142.2635911389045 67.21255592475232 3.872649838619018
  endloop
endfacet
facet normal 2.224174280525276e-17 -1.0 3.250227382522196e-16
  outer loop
    vertex 162.8442045343832 67.21255592475231 -24.8176494301462
    vertex 158.60054351967503 67.2125559247523 -10.872177867691398
    vertex 153.6370136336458 67.2125559247523 -19.553385794615775
  endloop
endfacet
facet normal 2.224174280525276e-17 -1.0 3.250227382522196e-16
  outer loop
    vertex 139.29228444387832 67.21255592475231 34.72483170769752
    vertex 141.84932317372306 67.21255592475232 15.987514670207908
    vertex 182.69832407850026 67.21255592475231 9.907182277551293
  endloop
endfacet
facet normal 2.224174280525276e-17 -1.0 3.250227382522196e-16
  outer loop
    vertex 141.84932317372306 67.21255592475232 15.987514670207908
    vertex 139.29228444387832 67.21255592475231 34.72483170769752
    vertex 119.43816489976136 67.21255592475231 0.0
  endloop
endfacet
facet normal 2.224174280525276e-17 -1.0 3.250227382522196e-16
  outer loop
    vertex 141.84932317372306 67.21255592475232 15.987514670207908
    vertex 119.43816489976136 67.21255592475231 0.0
    vertex 136.7311580290875 67.21255592475232 7.035849858038778
  endloop
endfacet
facet normal 2.224174280525276e-17 -1.0 3.250227382522196e-16
  outer loop
    vertex 182.69832407850026 67.21255592475231 9.907182277551293
    vertex 141.84932317372306 67.21255592475232 15.987514670207908
    vertex 147.38175628353997 67.21255592475232 12.824314650788152
  endloop
endfacet
facet normal 2.224174280525276e-17 -1.0 3.250227382522196e-16
  outer loop
    vertex 182.69832407850026 67.21255592475231 9.907182277551293
    vertex 147.38175628353997 67.21255592475232 12.824314650788152
    vertex 142.2635911389045 67.21255592475232 3.872649838619018
  endloop
endfacet
facet normal 2.224174280525276e-17 -1.0 3.250227382522196e-16
  outer loop
    vertex 182.69832407850026 67.21255592475231 9.907182277551293
    vertex 142.2635911389045 67.21255592475232 3.872649838619018
    vertex 152.52369797082795 67.2125559247523 -7.397706947470914
  endloop
endfacet
facet normal 2.224174280525276e-17 -1.0 3.250227382522196e-16
  outer loop
    vertex 152.52369797082795 67.2125559247523 -7.397706947470914
    vertex 142.2635911389045 67.21255592475232 3.872649838619018
    vertex 147.56016808479873 67.2125559247523 -16.07891487439529
  endloop
endfacet
facet normal 2.224174280525276e-17 -1.0 3.250227382522196e-16
  outer loop
    vertex 182.69832407850026 67.21255592475231 9.907182277551293
    vertex 152.52369797082795 67.2125559247523 -7.397706947470914
    vertex 158.60054351967503 67.2125559247523 -10.872177867691398
  endloop
endfacet
facet normal 2.224174280525276e-17 -1.0 3.250227382522196e-16
  outer loop
    vertex 182.69832407850026 67.21255592475231 9.907182277551293
    vertex 158.60054351967503 67.2125559247523 -10.872177867691398
    vertex 162.8442045343832 67.21255592475231 -24.8176494301462
  endloop
endfacet
facet normal 0.4963529886029238 4.974481365613427e-17 0.8681207926924375
  outer loop
    vertex 139.29228444387832 117.21255592475231 34.72483170769752
    vertex 141.49797654825122 114.1305234237346 33.46371473277997
    vertex 182.69832407850026 117.21255592475231 9.907182277551293
  endloop
endfacet
facet normal 0.4963529886029238 4.974481365613427e-17 0.8681207926924375
  outer loop
    vertex 141.49797654825122 114.1305234237346 33.46371473277997
    vertex 139.29228444387832 117.21255592475231 34.72483170769752
    vertex 139.29228444387832 67.21255592475231 34.72483170769752
  endloop
endfacet
facet normal 0.4963529886029238 4.974481365613427e-17 0.8681207926924375
  outer loop
    vertex 141.49797654825122 114.1305234237346 33.46371473277997
    vertex 139.29228444387832 67.21255592475231 34.72483170769752
    vertex 141.49797654825122 70.13052342373463 33.46371473277997
  endloop
endfacet
facet normal 0.4963529886029238 4.974481365613427e-17 0.8681207926924375
  outer loop
    vertex 141.49797654825122 70.13052342373463 33.46371473277997
    vertex 139.29228444387832 67.21255592475231 34.72483170769752
    vertex 179.6952914267184 70.13052342373463 11.624183234251289
  endloop
endfacet
facet normal 0.4963529886029238 4.974481365613427e-17 0.8681207926924375
  outer loop
    vertex 182.69832407850026 117.21255592475231 9.907182277551293
    vertex 179.69529142671843 114.1305234237346 11.624183234251294
    vertex 182.69832407850026 67.21255592475231 9.907182277551293
  endloop
endfacet
facet normal 0.4963529886029238 4.974481365613427e-17 0.8681207926924375
  outer loop
    vertex 179.69529142671843 114.1305234237346 11.624183234251294
    vertex 182.69832407850026 117.21255592475231 9.907182277551293
    vertex 141.49797654825122 114.1305234237346 33.46371473277997
  endloop
endfacet
facet normal 0.4963529886029238 4.974481365613427e-17 0.8681207926924375
  outer loop
    vertex 182.69832407850026 67.21255592475231 9.907182277551293
    vertex 179.69529142671843 114.1305234237346 11.624183234251294
    vertex 179.6952914267184 70.13052342373463 11.624183234251289
  endloop
endfacet
facet normal 0.4963529886029238 4.974481365613427e-17 0.8681207926924375
  outer loop
    vertex 182.69832407850026 67.21255592475231 9.907182277551293
    vertex 179.6952914267184 70.13052342373463 11.624183234251289
    vertex 139.29228444387832 67.21255592475231 34.72483170769752
  endloop
endfacet
facet normal 6.042690393579573e-16 -1.0 -3.454942516413267e-16
  outer loop
    vertex 119.43816489976132 79.21255592475234 -8.459899447643692e-15
    vertex 111.74966295004286 79.21255592475232 6.699771471414107
    vertex 110.75695697283699 79.21255592475232 4.963529886029242
  endloop
endfacet
facet normal 6.042690393579573e-16 -1.0 -3.454942516413267e-16
  outer loop
    vertex 111.74966295004286 79.21255592475232 6.699771471414107
    vertex 119.43816489976132 79.21255592475234 -8.459899447643692e-15
    vertex 120.43087087696722 79.21255592475234 1.7362415853848598
  endloop
endfacet
facet normal 6.0426903935796e-16 -1.0 -3.454942516413216e-16
  outer loop
    vertex 121.919929842776 85.21255592475232 4.340603963462187
    vertex 114.72778088166041 85.21255592475231 11.908496227568751
    vertex 113.23872191585163 85.21255592475231 9.30413384949143
  endloop
endfacet
facet normal 6.0426903935796e-16 -1.0 -3.454942516413216e-16
  outer loop
    vertex 114.72778088166041 85.21255592475231 11.908496227568751
    vertex 121.919929842776 85.21255592475232 4.340603963462187
    vertex 123.4089888085848 85.21255592475232 6.944966341539485
  endloop
endfacet
facet normal 0.49635298860292376 0.0 0.8681207926924375
  outer loop
    vertex 114.72778088166041 88.21255592475231 11.908496227568751
    vertex 123.4089888085848 85.21255592475232 6.944966341539485
    vertex 123.4089888085848 88.21255592475232 6.944966341539485
  endloop
endfacet
facet normal 0.49635298860292376 0.0 0.8681207926924375
  outer loop
    vertex 123.4089888085848 85.21255592475232 6.944966341539485
    vertex 114.72778088166041 88.21255592475231 11.908496227568751
    vertex 114.72778088166041 85.21255592475231 11.908496227568751
  endloop
endfacet
facet normal 6.042690393579627e-16 -1.0 -3.454942516413172e-16
  outer loop
    vertex 117.70589881327794 94.2125559247523 17.11722098372336
    vertex 127.87616570601108 94.21255592475231 14.758053475771446
    vertex 119.19495777908669 94.2125559247523 19.721583361800683
  endloop
endfacet
facet normal 6.042690393579627e-16 -1.0 -3.454942516413172e-16
  outer loop
    vertex 127.87616570601108 94.21255592475231 14.758053475771446
    vertex 117.70589881327794 94.2125559247523 17.11722098372336
    vertex 126.38710674020231 94.21255592475231 12.153691097694116
  endloop
endfacet
facet normal 2.7556905051024296e-16 1.0 -1.5755816810125455e-16
  outer loop
    vertex 134.32875455784907 105.21255592475231 26.043623780773107
    vertex 133.70582863528205 105.21255592475231 14.880650910834127
    vertex 129.3652246718198 105.21255592475231 17.362415853848773
  endloop
endfacet
facet normal 2.7556905051024296e-16 1.0 -1.5755816810125455e-16
  outer loop
    vertex 133.70582863528205 105.21255592475231 14.880650910834127
    vertex 134.32875455784907 105.21255592475231 26.043623780773107
    vertex 138.66935852131124 105.21255592475231 23.561858837758518
  endloop
endfacet
facet normal 6.042690393579628e-16 -1.0 -3.4549425164131696e-16
  outer loop
    vertex 119.19495777908669 97.21255592475231 19.721583361800683
    vertex 129.36522467181985 97.21255592475231 17.362415853848752
    vertex 120.68401674489546 97.21255592475231 22.325945739878012
  endloop
endfacet
facet normal 6.042690393579628e-16 -1.0 -3.4549425164131696e-16
  outer loop
    vertex 129.36522467181985 97.21255592475231 17.362415853848752
    vertex 119.19495777908669 97.21255592475231 19.721583361800683
    vertex 127.87616570601108 97.21255592475231 14.758053475771446
  endloop
endfacet
facet normal 0.49635298860292376 0.0 0.8681207926924375
  outer loop
    vertex 113.23872191585163 85.21255592475231 9.30413384949143
    vertex 121.919929842776 82.21255592475234 4.340603963462187
    vertex 121.919929842776 85.21255592475232 4.340603963462187
  endloop
endfacet
facet normal 0.49635298860292376 0.0 0.8681207926924375
  outer loop
    vertex 121.919929842776 82.21255592475234 4.340603963462187
    vertex 113.23872191585163 85.21255592475231 9.30413384949143
    vertex 113.23872191585163 82.21255592475232 9.30413384949143
  endloop
endfacet
facet normal 0.49635298860292376 0.0 0.8681207926924375
  outer loop
    vertex 117.70589881327794 94.2125559247523 17.11722098372336
    vertex 126.38710674020231 91.21255592475231 12.153691097694116
    vertex 126.38710674020231 94.21255592475231 12.153691097694116
  endloop
endfacet
facet normal 0.49635298860292376 0.0 0.8681207926924375
  outer loop
    vertex 126.38710674020231 91.21255592475231 12.153691097694116
    vertex 117.70589881327794 94.2125559247523 17.11722098372336
    vertex 117.70589881327794 91.21255592475231 17.11722098372336
  endloop
endfacet
facet normal 6.042690393579629e-16 -1.0 -3.4549425164131716e-16
  outer loop
    vertex 124.89804777439355 91.21255592475231 9.549328719616812
    vertex 117.70589881327794 91.21255592475231 17.11722098372336
    vertex 116.21683984746917 91.21255592475231 14.512858605646054
  endloop
endfacet
facet normal 6.042690393579629e-16 -1.0 -3.4549425164131716e-16
  outer loop
    vertex 117.70589881327794 91.21255592475231 17.11722098372336
    vertex 124.89804777439355 91.21255592475231 9.549328719616812
    vertex 126.38710674020231 91.21255592475231 12.153691097694116
  endloop
endfacet
facet normal 0.4963529886029236 0.0 0.8681207926924376
  outer loop
    vertex 119.19495777908669 97.21255592475231 19.721583361800683
    vertex 127.87616570601108 94.21255592475231 14.758053475771446
    vertex 127.87616570601108 97.21255592475231 14.758053475771446
  endloop
endfacet
facet normal 0.4963529886029236 0.0 0.8681207926924376
  outer loop
    vertex 127.87616570601108 94.21255592475231 14.758053475771446
    vertex 119.19495777908669 97.21255592475231 19.721583361800683
    vertex 119.19495777908669 94.2125559247523 19.721583361800683
  endloop
endfacet
facet normal 6.042690393579629e-16 -1.0 -3.454942516413168e-16
  outer loop
    vertex 111.74966295004286 82.21255592475232 6.699771471414107
    vertex 121.919929842776 82.21255592475234 4.340603963462187
    vertex 113.23872191585163 82.21255592475232 9.30413384949143
  endloop
endfacet
facet normal 6.042690393579629e-16 -1.0 -3.454942516413168e-16
  outer loop
    vertex 121.919929842776 82.21255592475234 4.340603963462187
    vertex 111.74966295004286 82.21255592475232 6.699771471414107
    vertex 120.43087087696722 82.21255592475234 1.7362415853848598
  endloop
endfacet
facet normal 0.49635298860292376 0.0 0.8681207926924375
  outer loop
    vertex 111.74966295004286 82.21255592475232 6.699771471414107
    vertex 120.43087087696722 79.21255592475234 1.7362415853848598
    vertex 120.43087087696722 82.21255592475234 1.7362415853848598
  endloop
endfacet
facet normal 0.49635298860292376 0.0 0.8681207926924375
  outer loop
    vertex 120.43087087696722 79.21255592475234 1.7362415853848598
    vertex 111.74966295004286 82.21255592475232 6.699771471414107
    vertex 111.74966295004286 79.21255592475232 6.699771471414107
  endloop
endfacet
facet normal 0.49635298860292376 0.0 0.8681207926924375
  outer loop
    vertex 120.68401674489546 97.21255592475231 22.325945739878012
    vertex 129.36522467181985 117.21255592475231 17.362415853848752
    vertex 120.68401674489546 117.21255592475231 22.325945739878012
  endloop
endfacet
facet normal 0.49635298860292376 0.0 0.8681207926924375
  outer loop
    vertex 129.36522467181985 117.21255592475231 17.362415853848752
    vertex 120.68401674489546 97.21255592475231 22.325945739878012
    vertex 129.36522467181985 112.21255592475232 17.362415853848752
  endloop
endfacet
facet normal 0.49635298860292376 0.0 0.8681207926924375
  outer loop
    vertex 129.36522467181985 112.21255592475232 17.362415853848752
    vertex 120.68401674489546 97.21255592475231 22.325945739878012
    vertex 133.70582863528205 112.21255592475232 14.880650910834127
  endloop
endfacet
facet normal 0.49635298860292376 0.0 0.8681207926924375
  outer loop
    vertex 133.70582863528205 112.21255592475232 14.880650910834127
    vertex 120.68401674489546 97.21255592475231 22.325945739878012
    vertex 129.3652246718198 105.21255592475231 17.362415853848773
  endloop
endfacet
facet normal 0.49635298860292376 0.0 0.8681207926924375
  outer loop
    vertex 129.3652246718198 105.21255592475231 17.362415853848773
    vertex 120.68401674489546 97.21255592475231 22.325945739878012
    vertex 129.36522467181985 97.21255592475231 17.362415853848752
  endloop
endfacet
facet normal 0.49635298860292376 0.0 0.8681207926924375
  outer loop
    vertex 133.70582863528205 105.21255592475231 14.880650910834127
    vertex 133.70582863528205 112.21255592475232 14.880650910834127
    vertex 129.3652246718198 105.21255592475231 17.362415853848773
  endloop
endfacet
facet normal 0.49635298860292376 0.0 0.8681207926924375
  outer loop
    vertex 116.21683984746917 91.21255592475231 14.512858605646054
    vertex 124.89804777439355 88.21255592475232 9.549328719616812
    vertex 124.89804777439355 91.21255592475231 9.549328719616812
  endloop
endfacet
facet normal 0.49635298860292376 0.0 0.8681207926924375
  outer loop
    vertex 124.89804777439355 88.21255592475232 9.549328719616812
    vertex 116.21683984746917 91.21255592475231 14.512858605646054
    vertex 116.21683984746917 88.21255592475231 14.512858605646054
  endloop
endfacet
facet normal -0.49635298860292426 0.0 -0.8681207926924372
  outer loop
    vertex 138.66935852131124 105.21255592475231 23.561858837758518
    vertex 134.32875455784907 112.21255592475232 26.043623780773107
    vertex 138.66935852131124 112.21255592475232 23.561858837758518
  endloop
endfacet
facet normal -0.49635298860292426 0.0 -0.8681207926924372
  outer loop
    vertex 134.32875455784907 112.21255592475232 26.043623780773107
    vertex 138.66935852131124 105.21255592475231 23.561858837758518
    vertex 134.32875455784907 105.21255592475231 26.043623780773107
  endloop
endfacet
facet normal -0.8681207926924378 -4.765212810995541e-17 0.49635298860292315
  outer loop
    vertex 119.43816489976136 67.21255592475231 0.0
    vertex 120.43087087696722 79.21255592475234 1.7362415853848598
    vertex 119.43816489976132 79.21255592475234 -8.459899447643692e-15
  endloop
endfacet
facet normal -0.8681207926924378 -4.765212810995541e-17 0.49635298860292315
  outer loop
    vertex 120.43087087696722 79.21255592475234 1.7362415853848598
    vertex 119.43816489976136 67.21255592475231 0.0
    vertex 139.29228444387832 67.21255592475231 34.72483170769752
  endloop
endfacet
facet normal -0.8681207926924378 -4.765212810995541e-17 0.49635298860292315
  outer loop
    vertex 120.43087087696722 79.21255592475234 1.7362415853848598
    vertex 139.29228444387832 67.21255592475231 34.72483170769752
    vertex 120.43087087696722 82.21255592475234 1.7362415853848598
  endloop
endfacet
facet normal -0.8681207926924378 -4.765212810995541e-17 0.49635298860292315
  outer loop
    vertex 120.43087087696722 82.21255592475234 1.7362415853848598
    vertex 139.29228444387832 67.21255592475231 34.72483170769752
    vertex 121.919929842776 82.21255592475234 4.340603963462187
  endloop
endfacet
facet normal -0.8681207926924378 -4.765212810995541e-17 0.49635298860292315
  outer loop
    vertex 121.919929842776 82.21255592475234 4.340603963462187
    vertex 139.29228444387832 67.21255592475231 34.72483170769752
    vertex 121.919929842776 85.21255592475232 4.340603963462187
  endloop
endfacet
facet normal -0.8681207926924378 -4.765212810995541e-17 0.49635298860292315
  outer loop
    vertex 121.919929842776 85.21255592475232 4.340603963462187
    vertex 139.29228444387832 67.21255592475231 34.72483170769752
    vertex 123.4089888085848 85.21255592475232 6.944966341539485
  endloop
endfacet
facet normal -0.8681207926924378 -4.765212810995541e-17 0.49635298860292315
  outer loop
    vertex 123.4089888085848 85.21255592475232 6.944966341539485
    vertex 139.29228444387832 67.21255592475231 34.72483170769752
    vertex 123.4089888085848 88.21255592475232 6.944966341539485
  endloop
endfacet
facet normal -0.8681207926924378 -4.765212810995541e-17 0.49635298860292315
  outer loop
    vertex 123.4089888085848 88.21255592475232 6.944966341539485
    vertex 139.29228444387832 67.21255592475231 34.72483170769752
    vertex 124.89804777439355 88.21255592475232 9.549328719616812
  endloop
endfacet
facet normal -0.8681207926924378 -4.765212810995541e-17 0.49635298860292315
  outer loop
    vertex 124.89804777439355 88.21255592475232 9.549328719616812
    vertex 139.29228444387832 67.21255592475231 34.72483170769752
    vertex 124.89804777439355 91.21255592475231 9.549328719616812
  endloop
endfacet
facet normal -0.8681207926924378 -4.765212810995541e-17 0.49635298860292315
  outer loop
    vertex 124.89804777439355 91.21255592475231 9.549328719616812
    vertex 139.29228444387832 67.21255592475231 34.72483170769752
    vertex 126.38710674020231 91.21255592475231 12.153691097694116
  endloop
endfacet
facet normal -0.8681207926924378 -4.765212810995541e-17 0.49635298860292315
  outer loop
    vertex 126.38710674020231 91.21255592475231 12.153691097694116
    vertex 139.29228444387832 67.21255592475231 34.72483170769752
    vertex 126.38710674020231 94.21255592475231 12.153691097694116
  endloop
endfacet
facet normal -0.8681207926924378 -4.765212810995541e-17 0.49635298860292315
  outer loop
    vertex 126.38710674020231 94.21255592475231 12.153691097694116
    vertex 139.29228444387832 67.21255592475231 34.72483170769752
    vertex 127.87616570601108 94.21255592475231 14.758053475771446
  endloop
endfacet
facet normal -0.8681207926924378 -4.765212810995541e-17 0.49635298860292315
  outer loop
    vertex 127.87616570601108 94.21255592475231 14.758053475771446
    vertex 139.29228444387832 67.21255592475231 34.72483170769752
    vertex 127.87616570601108 97.21255592475231 14.758053475771446
  endloop
endfacet
facet normal -0.8681207926924378 -4.765212810995541e-17 0.49635298860292315
  outer loop
    vertex 127.87616570601108 97.21255592475231 14.758053475771446
    vertex 139.29228444387832 67.21255592475231 34.72483170769752
    vertex 129.36522467181985 97.21255592475231 17.362415853848752
  endloop
endfacet
facet normal -0.8681207926924378 -4.765212810995541e-17 0.49635298860292315
  outer loop
    vertex 129.36522467181985 97.21255592475231 17.362415853848752
    vertex 139.29228444387832 67.21255592475231 34.72483170769752
    vertex 129.3652246718198 105.21255592475231 17.362415853848773
  endloop
endfacet
facet normal -0.8681207926924378 -4.765212810995541e-17 0.49635298860292315
  outer loop
    vertex 129.3652246718198 105.21255592475231 17.362415853848773
    vertex 139.29228444387832 67.21255592475231 34.72483170769752
    vertex 134.32875455784907 105.21255592475231 26.043623780773107
  endloop
endfacet
facet normal -0.8681207926924378 -4.765212810995541e-17 0.49635298860292315
  outer loop
    vertex 134.32875455784907 105.21255592475231 26.043623780773107
    vertex 139.29228444387832 67.21255592475231 34.72483170769752
    vertex 134.32875455784907 112.21255592475232 26.043623780773107
  endloop
endfacet
facet normal -0.8681207926924378 -4.765212810995541e-17 0.49635298860292315
  outer loop
    vertex 134.32875455784907 112.21255592475232 26.043623780773107
    vertex 129.36522467181985 117.21255592475231 17.362415853848752
    vertex 129.36522467181985 112.21255592475232 17.362415853848752
  endloop
endfacet
facet normal -0.8681207926924378 -4.765212810995541e-17 0.49635298860292315
  outer loop
    vertex 129.36522467181985 117.21255592475231 17.362415853848752
    vertex 134.32875455784907 112.21255592475232 26.043623780773107
    vertex 139.29228444387832 117.21255592475231 34.72483170769752
  endloop
endfacet
facet normal -0.8681207926924378 -4.765212810995541e-17 0.49635298860292315
  outer loop
    vertex 139.29228444387832 117.21255592475231 34.72483170769752
    vertex 134.32875455784907 112.21255592475232 26.043623780773107
    vertex 139.29228444387832 67.21255592475231 34.72483170769752
  endloop
endfacet
facet normal 6.042690393579629e-16 -1.0 -3.4549425164131686e-16
  outer loop
    vertex 114.72778088166041 88.21255592475231 11.908496227568751
    vertex 124.89804777439355 88.21255592475232 9.549328719616812
    vertex 116.21683984746917 88.21255592475231 14.512858605646054
  endloop
endfacet
facet normal 6.042690393579629e-16 -1.0 -3.4549425164131686e-16
  outer loop
    vertex 124.89804777439355 88.21255592475232 9.549328719616812
    vertex 114.72778088166041 88.21255592475231 11.908496227568751
    vertex 123.4089888085848 88.21255592475232 6.944966341539485
  endloop
endfacet
facet normal -0.8681207926924374 -6.960656217942298e-16 0.4963529886029236
  outer loop
    vertex 111.74966295004286 79.21255592475232 6.699771471414107
    vertex 110.75695697283699 117.21255592475231 4.963529886029242
    vertex 110.75695697283699 79.21255592475232 4.963529886029242
  endloop
endfacet
facet normal -0.8681207926924374 -6.960656217942298e-16 0.4963529886029236
  outer loop
    vertex 110.75695697283699 117.21255592475231 4.963529886029242
    vertex 111.74966295004286 79.21255592475232 6.699771471414107
    vertex 111.74966295004286 82.21255592475232 6.699771471414107
  endloop
endfacet
facet normal -0.8681207926924374 -6.960656217942298e-16 0.4963529886029236
  outer loop
    vertex 110.75695697283699 117.21255592475231 4.963529886029242
    vertex 111.74966295004286 82.21255592475232 6.699771471414107
    vertex 120.68401674489546 117.21255592475231 22.325945739878012
  endloop
endfacet
facet normal -0.8681207926924374 -6.960656217942298e-16 0.4963529886029236
  outer loop
    vertex 120.68401674489546 117.21255592475231 22.325945739878012
    vertex 111.74966295004286 82.21255592475232 6.699771471414107
    vertex 113.23872191585163 85.21255592475231 9.30413384949143
  endloop
endfacet
facet normal -0.8681207926924374 -6.960656217942298e-16 0.4963529886029236
  outer loop
    vertex 113.23872191585163 85.21255592475231 9.30413384949143
    vertex 111.74966295004286 82.21255592475232 6.699771471414107
    vertex 113.23872191585163 82.21255592475232 9.30413384949143
  endloop
endfacet
facet normal -0.8681207926924374 -6.960656217942298e-16 0.4963529886029236
  outer loop
    vertex 120.68401674489546 117.21255592475231 22.325945739878012
    vertex 113.23872191585163 85.21255592475231 9.30413384949143
    vertex 114.72778088166041 88.21255592475231 11.908496227568751
  endloop
endfacet
facet normal -0.8681207926924374 -6.960656217942298e-16 0.4963529886029236
  outer loop
    vertex 114.72778088166041 88.21255592475231 11.908496227568751
    vertex 113.23872191585163 85.21255592475231 9.30413384949143
    vertex 114.72778088166041 85.21255592475231 11.908496227568751
  endloop
endfacet
facet normal -0.8681207926924374 -6.960656217942298e-16 0.4963529886029236
  outer loop
    vertex 120.68401674489546 117.21255592475231 22.325945739878012
    vertex 114.72778088166041 88.21255592475231 11.908496227568751
    vertex 116.21683984746917 91.21255592475231 14.512858605646054
  endloop
endfacet
facet normal -0.8681207926924374 -6.960656217942298e-16 0.4963529886029236
  outer loop
    vertex 116.21683984746917 91.21255592475231 14.512858605646054
    vertex 114.72778088166041 88.21255592475231 11.908496227568751
    vertex 116.21683984746917 88.21255592475231 14.512858605646054
  endloop
endfacet
facet normal -0.8681207926924374 -6.960656217942298e-16 0.4963529886029236
  outer loop
    vertex 120.68401674489546 117.21255592475231 22.325945739878012
    vertex 116.21683984746917 91.21255592475231 14.512858605646054
    vertex 117.70589881327794 94.2125559247523 17.11722098372336
  endloop
endfacet
facet normal -0.8681207926924374 -6.960656217942298e-16 0.4963529886029236
  outer loop
    vertex 117.70589881327794 94.2125559247523 17.11722098372336
    vertex 116.21683984746917 91.21255592475231 14.512858605646054
    vertex 117.70589881327794 91.21255592475231 17.11722098372336
  endloop
endfacet
facet normal -0.8681207926924374 -6.960656217942298e-16 0.4963529886029236
  outer loop
    vertex 120.68401674489546 117.21255592475231 22.325945739878012
    vertex 117.70589881327794 94.2125559247523 17.11722098372336
    vertex 119.19495777908669 97.21255592475231 19.721583361800683
  endloop
endfacet
facet normal -0.8681207926924374 -6.960656217942298e-16 0.4963529886029236
  outer loop
    vertex 119.19495777908669 97.21255592475231 19.721583361800683
    vertex 117.70589881327794 94.2125559247523 17.11722098372336
    vertex 119.19495777908669 94.2125559247523 19.721583361800683
  endloop
endfacet
facet normal -0.8681207926924374 -6.960656217942298e-16 0.4963529886029236
  outer loop
    vertex 120.68401674489546 117.21255592475231 22.325945739878012
    vertex 119.19495777908669 97.21255592475231 19.721583361800683
    vertex 120.68401674489546 97.21255592475231 22.325945739878012
  endloop
endfacet
facet normal -0.8681207926924371 3.174316901863138e-16 0.49635298860292437
  outer loop
    vertex 138.66935852131124 105.21255592475231 23.561858837758518
    vertex 133.70582863528205 112.21255592475232 14.880650910834127
    vertex 133.70582863528205 105.21255592475231 14.880650910834127
  endloop
endfacet
facet normal -0.8681207926924371 3.174316901863138e-16 0.49635298860292437
  outer loop
    vertex 133.70582863528205 112.21255592475232 14.880650910834127
    vertex 138.66935852131124 105.21255592475231 23.561858837758518
    vertex 138.66935852131124 112.21255592475232 23.561858837758518
  endloop
endfacet
facet normal 5.5009360224341685e-16 -1.0 -3.145191381006381e-16
  outer loop
    vertex 160.43593114664986 81.84113610117618 -18.956240585183647
    vertex 178.71154003830554 81.84113610117618 2.9343016850338755
    vertex 174.37093607484334 81.84113610117618 5.4160666280485
  endloop
endfacet
facet normal 5.5009360224341685e-16 -1.0 -3.145191381006381e-16
  outer loop
    vertex 178.71154003830554 81.84113610117618 2.9343016850338755
    vertex 160.43593114664986 81.84113610117618 -18.956240585183647
    vertex 164.77653511011204 81.84113610117618 -21.43800552819826
  endloop
endfacet
facet normal -0.000996823983474075 -0.9999979833704954 -0.0017434439735010048
  outer loop
    vertex 178.71154003830554 81.84113610117618 2.9343016850338755
    vertex 174.80989400700034 81.83936002751703 6.183803534590231
    vertex 174.37093607484334 81.84113610117618 5.4160666280485
  endloop
endfacet
facet normal -0.000996823983474075 -0.9999979833704954 -0.0017434439735010048
  outer loop
    vertex 174.80989400700034 81.83936002751703 6.183803534590231
    vertex 178.71154003830554 81.84113610117618 2.9343016850338755
    vertex 179.1504979704625 81.83936002751703 3.7020385915756067
  endloop
endfacet
facet normal 0.4963529886029244 0.0 0.8681207926924371
  outer loop
    vertex 140.1998035078093 112.21255592475232 -2.45059469879096
    vertex 146.1665704720222 117.21255592475231 -5.862127563703623
    vertex 140.1998035078093 117.21255592475231 -2.45059469879096
  endloop
endfacet
facet normal 0.4963529886029244 0.0 0.8681207926924371
  outer loop
    vertex 146.1665704720222 117.21255592475231 -5.862127563703623
    vertex 140.1998035078093 112.21255592475232 -2.45059469879096
    vertex 146.1665704720222 112.21255592475232 -5.862127563703623
  endloop
endfacet
facet normal 0.0 1.0 0.0
  outer loop
    vertex 170.22721755145045 112.21255592475232 8.784294528308813
    vertex 159.18684211657416 112.21255592475232 3.5775575216049105
    vertex 164.15037200260338 112.21255592475232 12.258765448529285
  endloop
endfacet
facet normal 0.0 1.0 0.0
  outer loop
    vertex 159.18684211657416 112.21255592475232 3.5775575216049105
    vertex 170.22721755145045 112.21255592475232 8.784294528308813
    vertex 165.26368766542123 112.21255592475232 0.10308660138443494
  endloop
endfacet
facet normal 0.49635298860292404 0.0 0.8681207926924371
  outer loop
    vertex 159.18684211657416 112.21255592475232 3.5775575216049105
    vertex 165.26368766542123 117.21255592475231 0.10308660138443494
    vertex 159.18684211657416 117.21255592475231 3.5775575216049105
  endloop
endfacet
facet normal 0.49635298860292404 0.0 0.8681207926924371
  outer loop
    vertex 165.26368766542123 117.21255592475231 0.10308660138443494
    vertex 159.18684211657416 112.21255592475232 3.5775575216049105
    vertex 165.26368766542123 112.21255592475232 0.10308660138443494
  endloop
endfacet
facet normal 0.8681207926924372 0.0 -0.49635298860292426
  outer loop
    vertex 145.71977963697523 117.21255592475231 7.203837052255446
    vertex 140.1998035078093 112.21255592475232 -2.45059469879096
    vertex 140.1998035078093 117.21255592475231 -2.45059469879096
  endloop
endfacet
facet normal 0.8681207926924372 0.0 -0.49635298860292426
  outer loop
    vertex 140.1998035078093 112.21255592475232 -2.45059469879096
    vertex 145.71977963697523 117.21255592475231 7.203837052255446
    vertex 145.71977963697523 112.21255592475232 7.203837052255446
  endloop
endfacet
facet normal -0.4963529886029239 0.0 -0.8681207926924375
  outer loop
    vertex 170.22721755145045 112.21255592475232 8.784294528308813
    vertex 164.15037200260338 117.21255592475231 12.258765448529285
    vertex 170.22721755145045 117.21255592475231 8.784294528308813
  endloop
endfacet
facet normal -0.4963529886029239 0.0 -0.8681207926924375
  outer loop
    vertex 164.15037200260338 117.21255592475231 12.258765448529285
    vertex 170.22721755145045 112.21255592475232 8.784294528308813
    vertex 164.15037200260338 112.21255592475232 12.258765448529285
  endloop
endfacet
facet normal -0.140621154376574 -0.9590287488888767 -0.24594623344632868
  outer loop
    vertex 179.1504979704625 81.83936002751703 3.7020385915756067
    vertex 175.23086813244055 81.58881075066763 6.920086784357249
    vertex 174.80989400700034 81.83936002751703 6.183803534590231
  endloop
endfacet
facet normal -0.140621154376574 -0.9590287488888767 -0.24594623344632868
  outer loop
    vertex 175.23086813244055 81.58881075066763 6.920086784357249
    vertex 179.1504979704625 81.83936002751703 3.7020385915756067
    vertex 179.57147209590275 81.58881075066763 4.438321841342648
  endloop
endfacet
facet normal -2.755690505102431e-16 -1.0 1.5755816810125442e-16
  outer loop
    vertex 133.70582863528205 112.21255592475232 14.880650910834127
    vertex 134.32875455784907 112.21255592475232 26.043623780773107
    vertex 129.36522467181985 112.21255592475232 17.362415853848752
  endloop
endfacet
facet normal -2.755690505102431e-16 -1.0 1.5755816810125442e-16
  outer loop
    vertex 134.32875455784907 112.21255592475232 26.043623780773107
    vertex 133.70582863528205 112.21255592475232 14.880650910834127
    vertex 138.66935852131124 112.21255592475232 23.561858837758518
  endloop
endfacet
facet normal 0.8702008233744206 0.0 -0.4926971960529922
  outer loop
    vertex 143.31794172866594 117.21255592475231 24.687104228295812
    vertex 138.39096976813605 112.21255592475232 15.985095994551678
    vertex 138.39096976813605 117.21255592475231 15.985095994551678
  endloop
endfacet
facet normal 0.8702008233744206 0.0 -0.4926971960529922
  outer loop
    vertex 138.39096976813605 112.21255592475232 15.985095994551678
    vertex 143.31794172866594 117.21255592475231 24.687104228295812
    vertex 143.31794172866594 112.21255592475232 24.687104228295812
  endloop
endfacet
facet normal -0.49269719605299217 0.0 -0.8702008233744206
  outer loop
    vertex 149.40934749228677 112.21255592475232 21.238223855924947
    vertex 143.31794172866594 117.21255592475231 24.687104228295812
    vertex 149.40934749228677 117.21255592475231 21.238223855924947
  endloop
endfacet
facet normal -0.49269719605299217 0.0 -0.8702008233744206
  outer loop
    vertex 143.31794172866594 117.21255592475231 24.687104228295812
    vertex 149.40934749228677 112.21255592475232 21.238223855924947
    vertex 143.31794172866594 112.21255592475232 24.687104228295812
  endloop
endfacet
facet normal 0.0 1.0 0.0
  outer loop
    vertex 149.40934749228677 112.21255592475232 21.238223855924947
    vertex 138.39096976813605 112.21255592475232 15.985095994551678
    vertex 143.31794172866594 112.21255592475232 24.687104228295812
  endloop
endfacet
facet normal 0.0 1.0 0.0
  outer loop
    vertex 138.39096976813605 112.21255592475232 15.985095994551678
    vertex 149.40934749228677 112.21255592475232 21.238223855924947
    vertex 144.48237553175701 112.21255592475232 12.536215622180757
  endloop
endfacet
facet normal 0.0 1.0 0.0
  outer loop
    vertex 145.71977963697523 112.21255592475232 7.203837052255446
    vertex 146.1665704720222 112.21255592475232 -5.862127563703623
    vertex 140.1998035078093 112.21255592475232 -2.45059469879096
  endloop
endfacet
facet normal 0.0 1.0 0.0
  outer loop
    vertex 146.1665704720222 112.21255592475232 -5.862127563703623
    vertex 145.71977963697523 112.21255592475232 7.203837052255446
    vertex 151.6865466011881 112.21255592475232 3.7923041873428365
  endloop
endfacet
facet normal -0.8681207926924376 -0.0 0.4963529886029236
  outer loop
    vertex 170.22721755145045 112.21255592475232 8.784294528308813
    vertex 165.26368766542123 117.21255592475231 0.10308660138443494
    vertex 165.26368766542123 112.21255592475232 0.10308660138443494
  endloop
endfacet
facet normal -0.8681207926924376 -0.0 0.4963529886029236
  outer loop
    vertex 165.26368766542123 117.21255592475231 0.10308660138443494
    vertex 170.22721755145045 112.21255592475232 8.784294528308813
    vertex 170.22721755145045 117.21255592475231 8.784294528308813
  endloop
endfacet
facet normal -0.8702008233744264 -0.0 0.4926971960529819
  outer loop
    vertex 149.40934749228677 112.21255592475232 21.238223855924947
    vertex 144.48237553175701 117.21255592475231 12.536215622180757
    vertex 144.48237553175701 112.21255592475232 12.536215622180757
  endloop
endfacet
facet normal -0.8702008233744264 -0.0 0.4926971960529819
  outer loop
    vertex 144.48237553175701 117.21255592475231 12.536215622180757
    vertex 149.40934749228677 112.21255592475232 21.238223855924947
    vertex 149.40934749228677 117.21255592475231 21.238223855924947
  endloop
endfacet
facet normal -0.4963529886029244 -0.0 -0.8681207926924371
  outer loop
    vertex 151.6865466011881 112.21255592475232 3.7923041873428365
    vertex 145.71977963697523 117.21255592475231 7.203837052255446
    vertex 151.6865466011881 117.21255592475231 3.7923041873428365
  endloop
endfacet
facet normal -0.4963529886029244 -0.0 -0.8681207926924371
  outer loop
    vertex 145.71977963697523 117.21255592475231 7.203837052255446
    vertex 151.6865466011881 112.21255592475232 3.7923041873428365
    vertex 145.71977963697523 112.21255592475232 7.203837052255446
  endloop
endfacet
facet normal 0.8681207926924375 0.0 -0.4963529886029238
  outer loop
    vertex 164.15037200260338 117.21255592475231 12.258765448529285
    vertex 159.18684211657416 112.21255592475232 3.5775575216049105
    vertex 159.18684211657416 117.21255592475231 3.5775575216049105
  endloop
endfacet
facet normal 0.8681207926924375 0.0 -0.4963529886029238
  outer loop
    vertex 159.18684211657416 112.21255592475232 3.5775575216049105
    vertex 164.15037200260338 117.21255592475231 12.258765448529285
    vertex 164.15037200260338 112.21255592475232 12.258765448529285
  endloop
endfacet
facet normal 0.49269719605298967 0.0 0.8702008233744221
  outer loop
    vertex 138.39096976813605 112.21255592475232 15.985095994551678
    vertex 144.48237553175701 117.21255592475231 12.536215622180757
    vertex 138.39096976813605 117.21255592475231 15.985095994551678
  endloop
endfacet
facet normal 0.49269719605298967 0.0 0.8702008233744221
  outer loop
    vertex 144.48237553175701 117.21255592475231 12.536215622180757
    vertex 138.39096976813605 112.21255592475232 15.985095994551678
    vertex 144.48237553175701 112.21255592475232 12.536215622180757
  endloop
endfacet
facet normal -0.8681207926924372 0.0 0.49635298860292426
  outer loop
    vertex 151.6865466011881 112.21255592475232 3.7923041873428365
    vertex 146.1665704720222 117.21255592475231 -5.862127563703623
    vertex 146.1665704720222 112.21255592475232 -5.862127563703623
  endloop
endfacet
facet normal -0.8681207926924372 0.0 0.49635298860292426
  outer loop
    vertex 146.1665704720222 117.21255592475231 -5.862127563703623
    vertex 151.6865466011881 112.21255592475232 3.7923041873428365
    vertex 151.6865466011881 117.21255592475231 3.7923041873428365
  endloop
endfacet
facet normal 0.8681207926924374 6.336602082036601e-16 -0.496352988602924
  outer loop
    vertex 174.37093607484334 81.84113610117618 5.4160666280485
    vertex 160.43593114664986 75.68047410117617 -18.956240585183647
    vertex 160.43593114664986 81.84113610117618 -18.956240585183647
  endloop
endfacet
facet normal 0.8681207926924374 6.336602082036601e-16 -0.496352988602924
  outer loop
    vertex 160.43593114664986 75.68047410117617 -18.956240585183647
    vertex 174.37093607484334 81.84113610117618 5.4160666280485
    vertex 174.37093607484334 75.68047410117617 5.4160666280485
  endloop
endfacet
facet normal 0.8681207926924374 6.336602082036601e-16 -0.496352988602924
  outer loop
    vertex 174.37093607484334 75.68047410117617 5.4160666280485
    vertex 174.37093607484334 81.84113610117618 5.4160666280485
    vertex 174.80989400700034 81.83936002751703 6.183803534590231
  endloop
endfacet
facet normal 0.8681207926924374 6.336602082036601e-16 -0.496352988602924
  outer loop
    vertex 174.37093607484334 75.68047410117617 5.4160666280485
    vertex 174.80989400700034 81.83936002751703 6.183803534590231
    vertex 174.80989400700034 75.6822501748353 6.183803534590231
  endloop
endfacet
facet normal 0.8681207926924374 6.336602082036601e-16 -0.496352988602924
  outer loop
    vertex 174.80989400700034 75.6822501748353 6.183803534590231
    vertex 174.80989400700034 81.83936002751703 6.183803534590231
    vertex 175.23086813244055 81.58881075066763 6.920086784357249
  endloop
endfacet
facet normal 0.8681207926924374 6.336602082036601e-16 -0.496352988602924
  outer loop
    vertex 174.80989400700034 75.6822501748353 6.183803534590231
    vertex 175.23086813244055 81.58881075066763 6.920086784357249
    vertex 175.23086813244055 75.93279945168472 6.920086784357249
  endloop
endfacet
facet normal 0.8681207926924374 6.336602082036601e-16 -0.496352988602924
  outer loop
    vertex 175.23086813244055 75.93279945168472 6.920086784357249
    vertex 175.23086813244055 81.58881075066763 6.920086784357249
    vertex 175.59984019124926 81.10973476537963 7.565418480809701
  endloop
endfacet
facet normal 0.8681207926924374 6.336602082036601e-16 -0.496352988602924
  outer loop
    vertex 175.23086813244055 75.93279945168472 6.920086784357249
    vertex 175.59984019124926 81.10973476537963 7.565418480809701
    vertex 175.59984019124926 76.41187543697272 7.565418480809701
  endloop
endfacet
facet normal 0.8681207926924374 6.336602082036601e-16 -0.496352988602924
  outer loop
    vertex 175.59984019124926 76.41187543697272 7.565418480809701
    vertex 175.59984019124926 81.10973476537963 7.565418480809701
    vertex 175.8869941290913 80.440845451886 8.067650380018868
  endloop
endfacet
facet normal 0.8681207926924374 6.336602082036601e-16 -0.496352988602924
  outer loop
    vertex 175.59984019124926 76.41187543697272 7.565418480809701
    vertex 175.8869941290913 80.440845451886 8.067650380018868
    vertex 175.8869941290913 77.08076475046633 8.067650380018868
  endloop
endfacet
facet normal 0.8681207926924374 6.336602082036601e-16 -0.496352988602924
  outer loop
    vertex 175.8869941290913 77.08076475046633 8.067650380018868
    vertex 175.8869941290913 80.440845451886 8.067650380018868
    vertex 176.06912548587584 79.63619470826201 8.386197908605402
  endloop
endfacet
facet normal 0.8681207926924374 6.336602082036601e-16 -0.496352988602924
  outer loop
    vertex 175.8869941290913 77.08076475046633 8.067650380018868
    vertex 176.06912548587584 79.63619470826201 8.386197908605402
    vertex 176.0691254858759 77.88541549409032 8.386197908605396
  endloop
endfacet
facet normal 0.8681207926924374 6.336602082036601e-16 -0.496352988602924
  outer loop
    vertex 176.0691254858759 77.88541549409032 8.386197908605396
    vertex 176.06912548587584 79.63619470826201 8.386197908605402
    vertex 176.13151651184288 78.76080510117617 8.495319739566495
  endloop
endfacet
facet normal -0.4516114269465117 -0.4149167292595805 -0.7898678540312091
  outer loop
    vertex 180.4097294493381 79.63619470826201 5.904432965590773
    vertex 175.8869941290913 80.440845451886 8.067650380018868
    vertex 180.22759809255345 80.440845451886 5.585885437004272
  endloop
endfacet
facet normal -0.4516114269465117 -0.4149167292595805 -0.7898678540312091
  outer loop
    vertex 175.8869941290913 80.440845451886 8.067650380018868
    vertex 180.4097294493381 79.63619470826201 5.904432965590773
    vertex 176.06912548587584 79.63619470826201 8.386197908605402
  endloop
endfacet
facet normal -5.500936022434168e-16 1.0 3.145191381006379e-16
  outer loop
    vertex 178.71154003830554 75.68047410117617 2.9343016850338755
    vertex 160.43593114664986 75.68047410117617 -18.956240585183647
    vertex 174.37093607484334 75.68047410117617 5.4160666280485
  endloop
endfacet
facet normal -5.500936022434168e-16 1.0 3.145191381006379e-16
  outer loop
    vertex 160.43593114664986 75.68047410117617 -18.956240585183647
    vertex 178.71154003830554 75.68047410117617 2.9343016850338755
    vertex 164.77653511011204 75.68047410117617 -21.43800552819826
  endloop
endfacet
facet normal -0.26888210946937746 0.840561902858648 -0.4702744928974425
  outer loop
    vertex 179.94044415471146 76.41187543697272 5.0836535377951115
    vertex 175.23086813244055 75.93279945168472 6.920086784357249
    vertex 175.59984019124926 76.41187543697272 7.565418480809701
  endloop
endfacet
facet normal -0.26888210946937746 0.840561902858648 -0.4702744928974425
  outer loop
    vertex 175.23086813244055 75.93279945168472 6.920086784357249
    vertex 179.94044415471146 76.41187543697272 5.0836535377951115
    vertex 179.57147209590275 75.93279945168472 4.438321841342648
  endloop
endfacet
facet normal 0.0 -1.0 0.0
  outer loop
    vertex 153.6370136336458 72.2125559247523 -19.553385794615775
    vertex 152.52369797082795 72.2125559247523 -7.397706947470914
    vertex 147.56016808479873 72.2125559247523 -16.07891487439529
  endloop
endfacet
facet normal 0.0 -1.0 0.0
  outer loop
    vertex 152.52369797082795 72.2125559247523 -7.397706947470914
    vertex 153.6370136336458 72.2125559247523 -19.553385794615775
    vertex 158.60054351967503 72.2125559247523 -10.872177867691398
  endloop
endfacet
facet normal 0.4963529886029246 -1.1241402879420848e-16 0.868120792692437
  outer loop
    vertex 139.51256459383947 70.13052342373463 29.991231562010217
    vertex 177.7098794723067 114.1305234237346 8.151700063481558
    vertex 139.51256459383947 114.1305234237346 29.991231562010217
  endloop
endfacet
facet normal 0.4963529886029246 -1.1241402879420848e-16 0.868120792692437
  outer loop
    vertex 177.7098794723067 114.1305234237346 8.151700063481558
    vertex 139.51256459383947 70.13052342373463 29.991231562010217
    vertex 177.7098794723067 70.13052342373463 8.151700063481535
  endloop
endfacet
facet normal -0.868120792692437 -1.2724534467024786e-16 0.4963529886029246
  outer loop
    vertex 179.6952914267184 70.13052342373463 11.624183234251289
    vertex 177.7098794723067 114.1305234237346 8.151700063481558
    vertex 177.7098794723067 70.13052342373463 8.151700063481535
  endloop
endfacet
facet normal -0.868120792692437 -1.2724534467024786e-16 0.4963529886029246
  outer loop
    vertex 177.7098794723067 114.1305234237346 8.151700063481558
    vertex 179.6952914267184 70.13052342373463 11.624183234251289
    vertex 179.69529142671843 114.1305234237346 11.624183234251294
  endloop
endfacet
facet normal -0.49635298860292404 0.0 -0.8681207926924374
  outer loop
    vertex 158.60054351967503 67.2125559247523 -10.872177867691398
    vertex 152.52369797082795 72.2125559247523 -7.397706947470914
    vertex 158.60054351967503 72.2125559247523 -10.872177867691398
  endloop
endfacet
facet normal -0.49635298860292404 0.0 -0.8681207926924374
  outer loop
    vertex 152.52369797082795 72.2125559247523 -7.397706947470914
    vertex 158.60054351967503 67.2125559247523 -10.872177867691398
    vertex 152.52369797082795 67.2125559247523 -7.397706947470914
  endloop
endfacet
facet normal 0.496352988602924 0.0 0.8681207926924374
  outer loop
    vertex 160.43593114664986 75.68047410117617 -18.956240585183647
    vertex 164.77653511011204 81.84113610117618 -21.43800552819826
    vertex 160.43593114664986 81.84113610117618 -18.956240585183647
  endloop
endfacet
facet normal 0.496352988602924 0.0 0.8681207926924374
  outer loop
    vertex 164.77653511011204 81.84113610117618 -21.43800552819826
    vertex 160.43593114664986 75.68047410117617 -18.956240585183647
    vertex 164.77653511011204 75.68047410117617 -21.43800552819826
  endloop
endfacet
facet normal -0.0009968239834751832 0.9999979833704954 -0.0017434439735003904
  outer loop
    vertex 179.1504979704625 75.6822501748353 3.7020385915756067
    vertex 174.37093607484334 75.68047410117617 5.4160666280485
    vertex 174.80989400700034 75.6822501748353 6.183803534590231
  endloop
endfacet
facet normal -0.0009968239834751832 0.9999979833704954 -0.0017434439735003904
  outer loop
    vertex 174.37093607484334 75.68047410117617 5.4160666280485
    vertex 179.1504979704625 75.6822501748353 3.7020385915756067
    vertex 178.71154003830554 75.68047410117617 2.9343016850338755
  endloop
endfacet
facet normal -0.26888210946937946 -0.840561902858644 -0.4702744928974482
  outer loop
    vertex 179.57147209590275 81.58881075066763 4.438321841342648
    vertex 175.59984019124926 81.10973476537963 7.565418480809701
    vertex 175.23086813244055 81.58881075066763 6.920086784357249
  endloop
endfacet
facet normal -0.26888210946937946 -0.840561902858644 -0.4702744928974482
  outer loop
    vertex 175.59984019124926 81.10973476537963 7.565418480809701
    vertex 179.57147209590275 81.58881075066763 4.438321841342648
    vertex 179.94044415471143 81.10973476537963 5.0836535377951115
  endloop
endfacet
facet normal -0.37541512231210183 0.6541705656118759 -0.6566006069342519
  outer loop
    vertex 179.94044415471146 76.41187543697272 5.0836535377951115
    vertex 175.8869941290913 77.08076475046633 8.067650380018868
    vertex 180.22759809255345 77.08076475046633 5.585885437004272
  endloop
endfacet
facet normal -0.37541512231210183 0.6541705656118759 -0.6566006069342519
  outer loop
    vertex 175.8869941290913 77.08076475046633 8.067650380018868
    vertex 179.94044415471146 76.41187543697272 5.0836535377951115
    vertex 175.59984019124926 76.41187543697272 7.565418480809701
  endloop
endfacet
facet normal -0.4516114269465094 0.414916729259592 -0.7898678540312043
  outer loop
    vertex 180.22759809255345 77.08076475046633 5.585885437004272
    vertex 176.0691254858759 77.88541549409032 8.386197908605396
    vertex 180.4097294493381 77.88541549409032 5.904432965590773
  endloop
endfacet
facet normal -0.4516114269465094 0.414916729259592 -0.7898678540312043
  outer loop
    vertex 176.0691254858759 77.88541549409032 8.386197908605396
    vertex 180.22759809255345 77.08076475046633 5.585885437004272
    vertex 175.8869941290913 77.08076475046633 8.067650380018868
  endloop
endfacet
facet normal -0.14062115437657496 0.9590287488888766 -0.24594623344632793
  outer loop
    vertex 175.23086813244055 75.93279945168472 6.920086784357249
    vertex 179.1504979704625 75.6822501748353 3.7020385915756067
    vertex 174.80989400700034 75.6822501748353 6.183803534590231
  endloop
endfacet
facet normal -0.14062115437657496 0.9590287488888766 -0.24594623344632793
  outer loop
    vertex 179.1504979704625 75.6822501748353 3.7020385915756067
    vertex 175.23086813244055 75.93279945168472 6.920086784357249
    vertex 179.57147209590275 75.93279945168472 4.438321841342648
  endloop
endfacet
facet normal -0.4963529886029242 -0.0 -0.8681207926924372
  outer loop
    vertex 147.38175628353997 67.21255592475232 12.824314650788152
    vertex 141.84932317372306 72.21255592475232 15.987514670207908
    vertex 147.38175628353997 72.21255592475232 12.824314650788152
  endloop
endfacet
facet normal -0.4963529886029242 -0.0 -0.8681207926924372
  outer loop
    vertex 141.84932317372306 72.21255592475232 15.987514670207908
    vertex 147.38175628353997 67.21255592475232 12.824314650788152
    vertex 141.84932317372306 67.21255592475232 15.987514670207908
  endloop
endfacet
facet normal -0.4913137193034367 0.14213412169323872 -0.8593071166205454
  outer loop
    vertex 180.4097294493381 77.88541549409032 5.904432965590773
    vertex 176.13151651184288 78.76080510117617 8.495319739566495
    vertex 180.47212047530505 78.76080510117617 6.0135547965518885
  endloop
endfacet
facet normal -0.4913137193034367 0.14213412169323872 -0.8593071166205454
  outer loop
    vertex 176.13151651184288 78.76080510117617 8.495319739566495
    vertex 180.4097294493381 77.88541549409032 5.904432965590773
    vertex 176.0691254858759 77.88541549409032 8.386197908605396
  endloop
endfacet
facet normal -5.579703915290062e-17 -1.0 -9.758895578657881e-17
  outer loop
    vertex 177.7098794723067 114.1305234237346 8.151700063481558
    vertex 141.49797654825122 114.1305234237346 33.46371473277997
    vertex 139.51256459383947 114.1305234237346 29.991231562010217
  endloop
endfacet
facet normal -5.579703915290062e-17 -1.0 -9.758895578657881e-17
  outer loop
    vertex 141.49797654825122 114.1305234237346 33.46371473277997
    vertex 177.7098794723067 114.1305234237346 8.151700063481558
    vertex 179.69529142671843 114.1305234237346 11.624183234251294
  endloop
endfacet
facet normal 0.8681207926924376 0.0 -0.4963529886029236
  outer loop
    vertex 152.52369797082795 72.2125559247523 -7.397706947470914
    vertex 147.56016808479873 67.2125559247523 -16.07891487439529
    vertex 147.56016808479873 72.2125559247523 -16.07891487439529
  endloop
endfacet
facet normal 0.8681207926924376 0.0 -0.4963529886029236
  outer loop
    vertex 147.56016808479873 67.2125559247523 -16.07891487439529
    vertex 152.52369797082795 72.2125559247523 -7.397706947470914
    vertex 152.52369797082795 67.2125559247523 -7.397706947470914
  endloop
endfacet
facet normal -0.4913137193034356 -0.14213412169325115 -0.8593071166205439
  outer loop
    vertex 180.47212047530505 78.76080510117617 6.0135547965518885
    vertex 176.06912548587584 79.63619470826201 8.386197908605402
    vertex 180.4097294493381 79.63619470826201 5.904432965590773
  endloop
endfacet
facet normal -0.4913137193034356 -0.14213412169325115 -0.8593071166205439
  outer loop
    vertex 176.06912548587584 79.63619470826201 8.386197908605402
    vertex 180.47212047530505 78.76080510117617 6.0135547965518885
    vertex 176.13151651184288 78.76080510117617 8.495319739566495
  endloop
endfacet
facet normal -0.8681207926924374 -0.0 0.4963529886029236
  outer loop
    vertex 158.60054351967503 67.2125559247523 -10.872177867691398
    vertex 153.6370136336458 72.2125559247523 -19.553385794615775
    vertex 153.6370136336458 67.2125559247523 -19.553385794615775
  endloop
endfacet
facet normal -0.8681207926924374 -0.0 0.4963529886029236
  outer loop
    vertex 153.6370136336458 72.2125559247523 -19.553385794615775
    vertex 158.60054351967503 67.2125559247523 -10.872177867691398
    vertex 158.60054351967503 72.2125559247523 -10.872177867691398
  endloop
endfacet
facet normal 0.868120792692437 0.0 -0.4963529886029246
  outer loop
    vertex 141.49797654825122 114.1305234237346 33.46371473277997
    vertex 139.51256459383947 70.13052342373463 29.991231562010217
    vertex 139.51256459383947 114.1305234237346 29.991231562010217
  endloop
endfacet
facet normal 0.868120792692437 0.0 -0.4963529886029246
  outer loop
    vertex 139.51256459383947 70.13052342373463 29.991231562010217
    vertex 141.49797654825122 114.1305234237346 33.46371473277997
    vertex 141.49797654825122 70.13052342373463 33.46371473277997
  endloop
endfacet
facet normal -0.8681207926924374 -0.0 0.49635298860292393
  outer loop
    vertex 147.38175628353997 67.21255592475232 12.824314650788152
    vertex 142.2635911389045 72.21255592475232 3.872649838619018
    vertex 142.2635911389045 67.21255592475232 3.872649838619018
  endloop
endfacet
facet normal -0.8681207926924374 -0.0 0.49635298860292393
  outer loop
    vertex 142.2635911389045 72.21255592475232 3.872649838619018
    vertex 147.38175628353997 67.21255592475232 12.824314650788152
    vertex 147.38175628353997 72.21255592475232 12.824314650788152
  endloop
endfacet
facet normal 0.4963529886029239 0.0 0.8681207926924375
  outer loop
    vertex 136.7311580290875 67.21255592475232 7.035849858038778
    vertex 142.2635911389045 72.21255592475232 3.872649838619018
    vertex 136.7311580290875 72.21255592475232 7.035849858038778
  endloop
endfacet
facet normal 0.4963529886029239 0.0 0.8681207926924375
  outer loop
    vertex 142.2635911389045 72.21255592475232 3.872649838619018
    vertex 136.7311580290875 67.21255592475232 7.035849858038778
    vertex 142.2635911389045 67.21255592475232 3.872649838619018
  endloop
endfacet
facet normal 5.579703915290064e-17 1.0 9.758895578657877e-17
  outer loop
    vertex 141.49797654825122 70.13052342373463 33.46371473277997
    vertex 177.7098794723067 70.13052342373463 8.151700063481535
    vertex 139.51256459383947 70.13052342373463 29.991231562010217
  endloop
endfacet
facet normal 5.579703915290064e-17 1.0 9.758895578657877e-17
  outer loop
    vertex 177.7098794723067 70.13052342373463 8.151700063481535
    vertex 141.49797654825122 70.13052342373463 33.46371473277997
    vertex 179.6952914267184 70.13052342373463 11.624183234251289
  endloop
endfacet
facet normal -0.375415122312098 -0.6541705656118831 -0.656600606934247
  outer loop
    vertex 180.22759809255345 80.440845451886 5.585885437004272
    vertex 175.59984019124926 81.10973476537963 7.565418480809701
    vertex 179.94044415471143 81.10973476537963 5.0836535377951115
  endloop
endfacet
facet normal -0.375415122312098 -0.6541705656118831 -0.656600606934247
  outer loop
    vertex 175.59984019124926 81.10973476537963 7.565418480809701
    vertex 180.22759809255345 80.440845451886 5.585885437004272
    vertex 175.8869941290913 80.440845451886 8.067650380018868
  endloop
endfacet
facet normal 0.0 -1.0 0.0
  outer loop
    vertex 142.2635911389045 72.21255592475232 3.872649838619018
    vertex 141.84932317372306 72.21255592475232 15.987514670207908
    vertex 136.7311580290875 72.21255592475232 7.035849858038778
  endloop
endfacet
facet normal 0.0 -1.0 0.0
  outer loop
    vertex 141.84932317372306 72.21255592475232 15.987514670207908
    vertex 142.2635911389045 72.21255592475232 3.872649838619018
    vertex 147.38175628353997 72.21255592475232 12.824314650788152
  endloop
endfacet
facet normal 0.8681207926924375 0.0 -0.49635298860292376
  outer loop
    vertex 141.84932317372306 72.21255592475232 15.987514670207908
    vertex 136.7311580290875 67.21255592475232 7.035849858038778
    vertex 136.7311580290875 72.21255592475232 7.035849858038778
  endloop
endfacet
facet normal 0.8681207926924375 0.0 -0.49635298860292376
  outer loop
    vertex 136.7311580290875 67.21255592475232 7.035849858038778
    vertex 141.84932317372306 72.21255592475232 15.987514670207908
    vertex 141.84932317372306 67.21255592475232 15.987514670207908
  endloop
endfacet
endsolid Base 1.1
